<?xml version="1.0" standalone="no"?>
<!DOCTYPE svg PUBLIC "-//W3C//DTD SVG 20010904//EN"
 "http://www.w3.org/TR/2001/REC-SVG-20010904/DTD/svg10.dtd">
<svg version="1.0" xmlns="http://www.w3.org/2000/svg"
 width="300.000000pt" height="212.000000pt" viewBox="0 0 300.000000 212.000000"
 preserveAspectRatio="xMidYMid meet">
<metadata>
Created by potrace 1.10, written by Peter Selinger 2001-2011
</metadata>
<g transform="translate(0.000000,212.000000) scale(0.100000,-0.100000)"
fill="#000000" stroke="none">
<path d="M1170 1920 l0 -190 -270 0 -270 0 0 -865 0 -865 290 0 290 0 0 270 0
270 25 0 c20 0 25 5 24 23 -1 16 -2 18 -6 4 -7 -25 -119 -25 -126 1 -4 13 -5
11 -6 -5 -1 -18 4 -23 24 -23 37 0 35 -37 -2 -43 l-28 -4 28 -2 27 -1 0 -225
0 -225 -245 0 -245 0 0 225 0 225 180 0 c172 0 180 -1 180 -19 0 -11 4 -22 9
-26 6 -3 7 9 4 31 -4 25 -2 39 8 45 11 7 11 9 -3 9 -10 0 -18 -7 -18 -15 0
-13 -27 -15 -180 -15 l-180 0 0 405 0 405 245 0 245 0 0 -320 c0 -313 0 -320
20 -320 20 0 20 7 20 435 0 283 3 435 10 435 6 0 10 3 10 8 0 4 -18 7 -40 7
-22 0 -40 -3 -40 -7 0 -5 5 -8 10 -8 6 0 10 -36 10 -87 l0 -88 -265 0 -265 0
0 178 0 177 265 0 265 0 0 -55 c0 -30 -4 -55 -10 -55 -5 0 -10 -8 -10 -17 0
-14 2 -15 9 -4 6 9 20 12 40 9 17 -2 31 -1 31 4 0 4 -4 8 -9 8 -6 0 -12 24
-14 53 l-3 52 -2 -52 c-3 -70 -22 -68 -22 2 l0 55 271 0 c177 0 268 -3 264
-10 -3 -5 -1 -10 4 -10 6 0 11 15 11 33 l0 32 -255 -3 -255 -3 0 156 0 155
290 0 290 0 0 -156 c0 -151 -1 -156 -20 -151 -16 4 -20 0 -20 -21 0 -26 1 -27
55 -24 31 2 61 -1 68 -7 10 -8 12 -3 9 24 -3 24 -8 32 -18 28 -12 -4 -14 21
-14 151 l0 156 235 0 235 0 0 -156 0 -155 -203 3 -202 3 4 -35 c2 -19 6 -29 8
-22 6 15 473 18 488 3 7 -6 10 3 10 25 0 23 -4 33 -12 29 -10 -3 -13 31 -13
150 l0 155 235 0 235 0 0 -156 0 -155 -208 3 -208 3 4 -26 c3 -22 8 -26 25
-21 18 5 19 7 5 10 -10 2 -18 8 -18 13 0 5 86 9 205 9 l205 0 -2 163 -3 162
-242 3 -243 2 0 -165 c0 -103 4 -165 10 -165 6 0 10 -4 10 -10 0 -6 -87 -10
-240 -10 -153 0 -240 4 -240 10 0 6 73 10 200 10 l200 0 -2 163 -3 162 -242 3
-243 2 0 -165 c0 -140 2 -165 15 -165 8 0 15 -4 15 -10 0 -5 -22 -10 -49 -10
-28 0 -53 5 -56 10 -3 6 3 10 14 10 20 0 21 5 21 165 l0 165 -302 -2 -303 -3
-3 -120 c-2 -66 0 -139 3 -162 l6 -43 250 0 c159 0 249 -4 249 -10 0 -6 -95
-10 -265 -10 l-265 0 0 185 0 185 870 0 870 0 0 -185 0 -185 -200 0 c-127 0
-200 -4 -200 -10 0 -5 -7 -10 -15 -10 -8 0 -15 -3 -15 -7 0 -5 14 -8 30 -8 31
0 40 9 18 18 -7 3 76 6 185 6 l197 1 0 -180 0 -180 -195 0 -195 0 0 135 c0 83
4 135 10 135 6 0 10 3 10 8 0 4 -13 7 -30 7 -16 0 -30 -3 -30 -7 0 -5 8 -8 18
-8 16 -1 16 -1 0 -10 -10 -7 -144 -9 -350 -8 l-333 3 -3 -132 -3 -133 126 0
c104 0 125 -2 125 -15 0 -13 52 -15 405 -15 l405 0 -2 -332 -3 -333 -237 -3
-238 -2 0 274 c0 251 2 276 17 286 17 11 17 11 0 6 -10 -3 -23 -6 -28 -6 -6 0
-7 -4 -4 -10 4 -7 -92 -10 -280 -10 l-286 0 3 -152 c3 -143 4 -151 23 -153 19
-1 20 5 20 129 l0 131 248 3 247 2 0 -250 0 -250 -251 0 -251 0 4 59 4 59 -33
4 c-18 2 -33 0 -33 -4 0 -4 5 -8 10 -8 6 0 10 -52 10 -135 0 -113 2 -135 15
-135 13 0 15 -20 15 -124 0 -83 4 -127 11 -132 9 -5 10 45 5 200 l-8 206 531
0 531 0 0 -315 0 -315 -532 -3 -533 -2 538 -3 537 -2 0 325 c0 318 0 325 -20
325 -20 0 -20 7 -20 350 0 343 0 350 20 350 20 0 20 7 20 380 l0 380 -880 0
-880 0 0 -190z m900 -440 l0 -121 -117 4 -118 3 -3 117 -3 117 121 0 120 0 0
-120z m450 -5 l0 -125 180 0 c113 0 180 -4 180 -10 0 -6 -140 -10 -400 -10
l-400 0 0 135 0 135 220 0 220 0 0 -125z m-1320 -20 c0 -50 -4 -85 -10 -85 -6
0 -10 35 -10 85 0 50 4 85 10 85 6 0 10 -35 10 -85z m-31 -101 l31 -6 0 -334
c0 -216 -4 -334 -10 -334 -6 0 -10 113 -10 320 l0 320 -255 0 -255 0 2 -642 3
-643 253 -3 252 -2 0 255 c0 163 4 255 10 255 6 0 10 -95 10 -265 l0 -265
-280 0 -280 0 0 670 0 669 98 4 c199 6 400 7 431 1z m1221 -440 c0 -174 -3
-263 -10 -259 -6 4 -10 100 -10 256 l0 249 -260 0 -260 0 0 -130 c0 -80 -4
-130 -10 -130 -6 0 -10 53 -10 140 l0 140 280 0 280 0 0 -266z m-540 -284 c0
-80 -4 -130 -10 -130 -6 0 -10 50 -10 130 0 80 4 130 10 130 6 0 10 -50 10
-130z"/>
<path d="M1934 1570 c-52 -21 -69 -88 -34 -133 26 -33 63 -41 100 -22 40 21
38 27 -3 10 -97 -40 -152 91 -57 137 36 18 31 23 -6 8z"/>
<path d="M1936 1492 c-2 -4 -1 -14 4 -22 7 -11 11 -11 24 -1 9 7 13 17 10 22
-7 11 -31 12 -38 1z"/>
<path d="M2173 1583 l57 -4 0 -99 c0 -69 4 -100 11 -100 9 0 10 27 5 96 -4 53
-9 101 -12 105 -3 5 -31 8 -62 7 l-57 -2 58 -3z"/>
<path d="M2333 1583 c26 -2 68 -2 95 0 26 2 4 3 -48 3 -52 0 -74 -1 -47 -3z"/>
<path d="M2102 1468 l-2 -118 70 0 c39 0 70 3 70 8 0 4 -29 5 -65 4 l-64 -4
-4 114 -3 113 -2 -117z"/>
<path d="M2262 1468 l-2 -118 120 0 120 0 -2 118 -2 117 -3 -112 -4 -113 -109
0 -109 0 -4 113 -3 112 -2 -117z"/>
<path d="M35 2087 c-3 -6 -4 -183 -3 -391 3 -327 5 -380 18 -384 12 -4 13 -2
3 9 -10 10 -13 102 -13 391 l0 378 275 0 275 0 0 -380 0 -380 -112 0 c-62 0
-120 -5 -128 -10 -10 -7 27 -9 115 -8 l130 3 3 393 2 392 -280 0 c-216 0 -282
-3 -285 -13z"/>
<path d="M50 1706 l0 -365 138 -3 c75 -2 182 0 237 3 l100 5 -87 2 -88 2 0
140 0 140 -144 0 -145 0 -1 215 0 215 255 0 255 0 0 -159 0 -160 -242 -1
c-133 0 -244 -3 -247 -5 -2 -3 106 -5 242 -5 l245 0 -1 -195 c-1 -107 1 -195
6 -195 4 0 7 164 7 365 l0 365 -265 0 -265 0 0 -364z m290 -218 l0 -133 -140
0 -140 0 0 133 0 132 140 0 140 0 0 -132z"/>
<path d="M72 1493 l2 -118 3 113 4 112 119 0 119 0 4 -107 3 -108 2 113 2 112
-130 0 -130 0 2 -117z"/>
<path d="M150 1532 c-37 -37 -38 -70 -5 -106 44 -47 125 -22 140 45 8 34 -28
77 -72 85 -27 5 -37 1 -63 -24z m83 7 c68 -31 45 -129 -31 -129 -30 0 -72 38
-72 66 0 27 40 74 64 74 8 0 26 -5 39 -11z"/>
<path d="M169 1484 c-9 -11 -9 -18 -1 -26 14 -14 42 -3 42 16 0 20 -27 27 -41
10z"/>
<path d="M193 1703 c59 -2 155 -2 215 0 59 1 10 3 -108 3 -118 0 -167 -2 -107
-3z"/>
<path d="M1856 114 c-9 -25 -7 -72 4 -79 6 -4 10 13 10 44 0 53 -4 62 -14 35z"/>
</g>
</svg>
